<svg width="16" height="16" viewBox="0 0 16 16" fill="none" xmlns="http://www.w3.org/2000/svg">
  <path fill-rule="evenodd" clip-rule="evenodd" d="M4 2C3.44772 2 3 2.44772 3 3V11C3 11.5523 3.44772 12 4 12H10C10.5523 12 11 11.5523 11 11V3C11 2.44772 10.5523 2 10 2H4ZM1.5 3C1.5 1.61929 2.61929 0.5 4 0.5H10C11.3807 0.5 12.5 1.61929 12.5 3V11C12.5 12.3807 11.3807 13.5 10 13.5H4C2.61929 13.5 1.5 12.3807 1.5 11V3Z" fill="currentColor"/>
  <path d="M5 4.75C5 4.33579 5.33579 4 5.75 4H8.25C8.66421 4 9 4.33579 9 4.75C9 5.16421 8.66421 5.5 8.25 5.5H5.75C5.33579 5.5 5 5.16421 5 4.75Z" fill="currentColor"/>
  <path d="M5 7.25C5 6.83579 5.33579 6.5 5.75 6.5H8.25C8.66421 6.5 9 6.83579 9 7.25C9 7.66421 8.66421 8 8.25 8H5.75C5.33579 8 5 7.66421 5 7.25Z" fill="currentColor"/>
  <path d="M5.75 9C5.33579 9 5 9.33579 5 9.75C5 10.1642 5.33579 10.5 5.75 10.5H8.25C8.66421 10.5 9 10.1642 9 9.75C9 9.33579 8.66421 9 8.25 9H5.75Z" fill="currentColor"/>
  <path d="M13.5 5V13C13.5 14.3807 12.3807 15.5 11 15.5H6V14H11C11.5523 14 12 13.5523 12 13V5H13.5Z" fill="currentColor"/>
</svg>
